<svg xmlns="http://www.w3.org/2000/svg" viewBox="0 0 512 512" xml:space="preserve"><path style="fill:#a0d468" d="M118 160a75 75 0 0 1 148 0H118z"/><path style="fill:#8cc153" d="M192 85c-47 0-85 39-85 86h171c0-47-38-86-86-86zm-60 64a64 64 0 0 1 121 0H132z"/><path style="fill:#8cc153" d="M177 171h30l53-53-15-15-42 42V86a85 85 0 0 0-21 0v59l-42-42-15 15 52 53z"/><path style="fill:#e6e9ed" d="M382 228c-15-37 0-100 0-100H195s15 63 0 100c-9 23-23 71-23 99 0 69 52 100 117 100 64 0 116-31 116-100 0-28-14-76-23-99z"/><path style="fill:#ccd1d9" d="M278 416h21v88h-21z"/><path style="fill:#a0d468" d="M395 11a11 11 0 0 0-20-4l-1 1-75 234 20 7 76-235v-3z"/><path style="fill:#ac92eb" d="M172 327c0 69 52 100 117 100 64 0 116-31 116-100 0-25-11-68-20-92H193c-9 24-21 67-21 92z"/><path style="fill:#967adc" d="M374 352a11 11 0 1 1-21 0 11 11 0 0 1 21 0zM352 309a11 11 0 1 1-21 0 11 11 0 0 1 21 0z"/><path style="fill:#e6e9ed" d="M353 491H225a11 11 0 0 0 0 21h128a11 11 0 0 0 0-21z"/><g style="opacity:.2"><path style="fill:#fff" d="M382 228c-15-37 0-100 0-100h-21s-15 63 0 100c9 23 23 71 23 99 0 65-47 96-106 99l11 1c64 0 116-31 116-100 0-28-14-76-23-99z"/></g></svg>