<svg width="238" height="238" viewBox="0 0 238 238" fill="none" xmlns="http://www.w3.org/2000/svg">
<path d="M142.144 143.332C142.144 149.177 132.386 161.582 114.766 161.582C97.1397 161.582 87.3911 149.293 87.3911 143.332C87.3911 137.371 87.3911 82.5002 87.3911 82.5002H142.144C142.144 82.5002 142.144 137.482 142.144 143.332Z" fill="#E6E9ED"/>
<path d="M94.0568 67.0927H87.5916L101.261 105.063L106.987 103.005L94.0568 67.0927Z" fill="#FFD2A6"/>
<path d="M169.732 49.0387C169.732 47.3588 168.369 46 166.694 46C166.435 46 166.186 46.0311 165.954 46.0935V46.089L141.725 52.1709L141.734 52.1755C140.735 52.425 139.942 53.1602 139.604 54.1138L122.488 102.786L128.224 104.8L144.799 57.6735L167.433 51.9882C168.752 51.6542 169.732 50.4645 169.732 49.0387Z" fill="#434A54"/>
<path d="M88.6385 61.0241L68.2678 94.2184L125.489 73.6158L88.6385 61.0241Z" fill="#ED5564"/>
<path d="M118.028 158.669H111.942V185.914H118.028V158.669Z" fill="#CCD1D9"/>
<path d="M87.3911 100.75C87.3911 117.294 87.3911 139.647 87.3911 143.332C87.3911 149.293 97.14 161.582 114.766 161.582C132.386 161.582 142.144 149.177 142.144 143.332C142.144 139.714 142.144 117.32 142.144 100.75H87.3911Z" fill="#A0D468"/>
<path d="M127.155 128.125C127.155 129.8 125.792 131.164 124.107 131.164C122.43 131.164 121.067 129.8 121.067 128.125C121.067 126.441 122.43 125.082 124.107 125.082C125.792 125.082 127.155 126.441 127.155 128.125Z" fill="#8CC153"/>
<path d="M133.232 140.289C133.232 141.969 131.869 143.332 130.193 143.332C128.509 143.332 127.155 141.969 127.155 140.289C127.155 138.609 128.509 137.25 130.193 137.25C131.869 137.25 133.232 138.609 133.232 140.289Z" fill="#8CC153"/>
<path d="M139.319 188.957C139.319 187.277 137.955 185.914 136.28 185.914H93.6913C92.0114 185.914 90.6526 187.277 90.6526 188.957C90.6526 190.637 92.0117 192 93.6913 192H136.28C137.955 192 139.319 190.637 139.319 188.957Z" fill="#E6E9ED"/>
<g opacity="0.2">
<path d="M136.057 82.5002C136.057 82.5002 136.057 137.482 136.057 143.332C136.057 148.835 127.422 160.139 111.714 161.453C112.703 161.538 113.719 161.582 114.766 161.582C132.386 161.582 142.144 149.177 142.144 143.332C142.144 137.482 142.144 82.5002 142.144 82.5002H136.057Z" fill="white"/>
</g>
</svg>
